# xmcd CD database file
#
# Track frame offsets:
#	183
#	46555
#	86308
#	123708
#	162220
#	200583
#	231433
#	251983
#
# Disc length: 3699 seconds
#
# Revision: 0
# Processed by: cddbd v1.5.1PL0 Copyright (c) Steve Scherf et al.
# Submitted via: CDex 1.51
#
DISCID=670e7108
DTITLE=Franz Weyerer Quintett - For You
DYEAR=1900
DGENRE=Jazz
TTITLE0=Mimi's Blues
TTITLE1=Boo Boo
TTITLE2=More Chutney
TTITLE3=Catch as Catch can
TTITLE4=Once again
TTITLE5=For You
TTITLE6=Voices of Balch
TTITLE7=Whatever it is
EXTD=
EXTT0=
EXTT1=
EXTT2=
EXTT3=
EXTT4=
EXTT5=
EXTT6=
EXTT7=
PLAYORDER=
